<svg xmlns="http://www.w3.org/2000/svg" viewBox="0 0 32 32">
    <path id="viber" d="M25.29147,6.8137c-.63046-.5773-3.17131-2.42311-8.8303-2.4497,0,0-6.67684-.40259-9.93171,2.58262C4.71783,8.75826,4.07977,11.40925,4.0152,14.6983c-.06836,3.289-.15572,9.44557,5.78432,11.11668h.0038l-.0038,2.54844s-.038,1.033.64186,1.24194c.82036.25446,1.30271-.52792,2.08889-1.37487.42917-.46336,1.02545-1.147,1.47361-1.66732a22.93446,22.93446,0,0,0,7.539-.5545c.82036-.26586,5.46149-.86214,6.21349-7.01866C28.53494,12.64359,27.37656,8.62533,25.29147,6.8137Zm.68743,11.72055c-.63806,5.14246-4.40185,5.46909-5.09309,5.68937a21.06638,21.06638,0,0,1-6.48694.55071s-2.57123,3.09915-3.3726,3.90812a.42844.42844,0,0,1-.3722.15192c-.13673-.03419-.17471-.1975-.17471-.43677.0038-.34182.02279-4.23474.02279-4.23474h0C5.48122,22.769,5.77366,17.524,5.83063,14.77805s.5735-4.99434,2.10408-6.50593c2.75354-2.49148,8.42392-2.11927,8.42392-2.11927,4.78925.02278,7.08322,1.46222,7.61494,1.94456C25.73583,9.6128,26.636,13.23228,25.9789,18.53425Zm-7.18983-3.65639a.32009.32009,0,0,1-.31945-.30465,1.52577,1.52577,0,0,0-1.61147-1.67454.32009.32009,0,0,1,.034-.63928,2.14764,2.14764,0,0,1,2.21693,2.28293.3201.3201,0,0,1-.30425.33517Zm1.64114.55071-.00741-.00009a.32009.32009,0,0,1-.31274-.32728,3.68811,3.68811,0,0,0-.95647-2.7083,3.972,3.972,0,0,0-2.791-1.21128.32009.32009,0,1,1,.04532-.63857A4.64026,4.64026,0,0,1,19.62522,11.96a4.35546,4.35546,0,0,1,1.12486,3.15575A.32011.32011,0,0,1,20.43021,15.42857Zm1.68232.65706a.32008.32008,0,0,1-.32-.31771,6.19355,6.19355,0,0,0-1.723-4.57038,5.92871,5.92871,0,0,0-4.24845-1.67862.3201.3201,0,0,1,.002-.64019l.00208,0a6.5491,6.5491,0,0,1,4.69159,1.86069,6.80808,6.80808,0,0,1,1.91591,5.0237.32007.32007,0,0,1-.31768.32247Zm-5.17281,2.76006a.8718.8718,0,0,0,.69123-.26206l.471-.59249a1.03865,1.03865,0,0,1,1.3179-.1823c.3.17091.83935.50133,1.17357.7482.357.26206,1.09.87354,1.09.87354a.90331.90331,0,0,1,.1937,1.18117l-.0038.00759a4.91094,4.91094,0,0,1-.98367,1.21156l-.0076.00759a1.94586,1.94586,0,0,1-.99887.48235.56.56,0,0,1-.14432.00759,1.36092,1.36092,0,0,1-.42537-.06456l-.0114-.01519a14.4585,14.4585,0,0,1-2.74594-1.26853,16.17126,16.17126,0,0,1-2.30537-1.523,12.19407,12.19407,0,0,1-1.03684-.91911l-.03419-.03418-.03418-.03418h0l-.03418-.03419-.03418-.03418a12.19413,12.19413,0,0,1-.91911-1.03685,16.39014,16.39014,0,0,1-1.523-2.30537,14.45821,14.45821,0,0,1-1.26853-2.74594l-.01519-.01139a1.25876,1.25876,0,0,1-.06456-.42537.56007.56007,0,0,1,.00759-.14433,1.94594,1.94594,0,0,1,.48235-.99886l.00759-.0076a4.84254,4.84254,0,0,1,1.21156-.98368l.00759-.00379a.90333.90333,0,0,1,1.18118.19369c.00379.0038.61147.733.87353,1.09a13.77228,13.77228,0,0,1,.7482,1.17358,1.03865,1.03865,0,0,1-.1823,1.3179l-.59249.471a.87515.87515,0,0,0-.26206.69123A6.19289,6.19289,0,0,0,16.93972,18.84569Zm8.35175-12.032c-.63046-.5773-3.17131-2.42311-8.8303-2.4497,0,0-6.67684-.40259-9.93171,2.58262C4.71783,8.75826,4.07977,11.40925,4.0152,14.6983c-.06836,3.289-.15572,9.44557,5.78432,11.11668h.0038l-.0038,2.54844s-.038,1.033.64186,1.24194c.82036.25446,1.30271-.52792,2.08889-1.37487.42917-.46336,1.02545-1.147,1.47361-1.66732a22.93446,22.93446,0,0,0,7.539-.5545c.82036-.26586,5.46149-.86214,6.21349-7.01866C28.53494,12.64359,27.37656,8.62533,25.29147,6.8137Zm.68743,11.72055c-.63806,5.14246-4.40185,5.46909-5.09309,5.68937a21.06638,21.06638,0,0,1-6.48694.55071s-2.57123,3.09915-3.3726,3.90812a.42844.42844,0,0,1-.3722.15192c-.13673-.03419-.17471-.1975-.17471-.43677.0038-.34182.02279-4.23474.02279-4.23474h0C5.48122,22.769,5.77366,17.524,5.83063,14.77805s.5735-4.99434,2.10408-6.50593c2.75354-2.49148,8.42392-2.11927,8.42392-2.11927,4.78925.02278,7.08322,1.46222,7.61494,1.94456C25.73583,9.6128,26.636,13.23228,25.9789,18.53425Zm-7.18983-3.65639a.32009.32009,0,0,1-.31945-.30465,1.52577,1.52577,0,0,0-1.61147-1.67454.32009.32009,0,0,1,.034-.63928,2.14764,2.14764,0,0,1,2.21693,2.28293.3201.3201,0,0,1-.30425.33517Zm1.64114.55071-.00741-.00009a.32009.32009,0,0,1-.31274-.32728,3.68811,3.68811,0,0,0-.95647-2.7083,3.972,3.972,0,0,0-2.791-1.21128.32009.32009,0,1,1,.04532-.63857A4.64026,4.64026,0,0,1,19.62522,11.96a4.35546,4.35546,0,0,1,1.12486,3.15575A.32011.32011,0,0,1,20.43021,15.42857Zm1.68232.65706a.32008.32008,0,0,1-.32-.31771,6.19355,6.19355,0,0,0-1.723-4.57038,5.92871,5.92871,0,0,0-4.24845-1.67862.3201.3201,0,0,1,.002-.64019l.00208,0a6.5491,6.5491,0,0,1,4.69159,1.86069,6.80808,6.80808,0,0,1,1.91591,5.0237.32007.32007,0,0,1-.31768.32247Zm-5.17281,2.76006a.8718.8718,0,0,0,.69123-.26206l.471-.59249a1.03865,1.03865,0,0,1,1.3179-.1823c.3.17091.83935.50133,1.17357.7482.357.26206,1.09.87354,1.09.87354a.90331.90331,0,0,1,.1937,1.18117l-.0038.00759a4.91094,4.91094,0,0,1-.98367,1.21156l-.0076.00759a1.94586,1.94586,0,0,1-.99887.48235.56.56,0,0,1-.14432.00759,1.36092,1.36092,0,0,1-.42537-.06456l-.0114-.01519a14.4585,14.4585,0,0,1-2.74594-1.26853,16.17126,16.17126,0,0,1-2.30537-1.523,12.19407,12.19407,0,0,1-1.03684-.91911l-.03419-.03418-.03418-.03418h0l-.03418-.03419-.03418-.03418a12.19413,12.19413,0,0,1-.91911-1.03685,16.39014,16.39014,0,0,1-1.523-2.30537,14.45821,14.45821,0,0,1-1.26853-2.74594l-.01519-.01139a1.25876,1.25876,0,0,1-.06456-.42537.56007.56007,0,0,1,.00759-.14433,1.94594,1.94594,0,0,1,.48235-.99886l.00759-.0076a4.84254,4.84254,0,0,1,1.21156-.98368l.00759-.00379a.90333.90333,0,0,1,1.18118.19369c.00379.0038.61147.733.87353,1.09a13.77228,13.77228,0,0,1,.7482,1.17358,1.03865,1.03865,0,0,1-.1823,1.3179l-.59249.471a.87515.87515,0,0,0-.26206.69123A6.19289,6.19289,0,0,0,16.93972,18.84569Z" fill="#262626"/>
</svg>
